HIERARCHY
ROOT Hips
{
  OFFSET 0.0273292 -0.436096 0.279869
  CHANNELS 6 Xposition Yposition Zposition Zrotation Xrotation Yrotation
  JOINT LHipJoint
  {
    OFFSET 0 0 0
    CHANNELS 6 Xposition Yposition Zposition Zrotation Xrotation Yrotation
    JOINT LeftUpLeg
    {
      OFFSET 1.36306 -1.79463 0
      CHANNELS 6 Xposition Yposition Zposition Zrotation Xrotation Yrotation
      JOINT LeftLeg
      {
        OFFSET 2.44807 -6.72613 0.000295034
        CHANNELS 6 Xposition Yposition Zposition Zrotation Xrotation Yrotation
        JOINT LeftFoot
        {
          OFFSET 2.5622 -7.03959 3.59965e-05
          CHANNELS 6 Xposition Yposition Zposition Zrotation Xrotation Yrotation
          JOINT LeftToeBase
          {
            OFFSET 0.15764 -0.43311 2.32255
            CHANNELS 6 Xposition Yposition Zposition Zrotation Xrotation Yrotation
            End Site
            {
              OFFSET 0 0 0
            }
          }
        }
      }
    }
  }
  JOINT RHipJoint
  {
    OFFSET 0 0 0
    CHANNELS 6 Xposition Yposition Zposition Zrotation Xrotation Yrotation
    JOINT RightUpLeg
    {
      OFFSET -1.30552 -1.79463 0
      CHANNELS 6 Xposition Yposition Zposition Zrotation Xrotation Yrotation
      JOINT RightLeg
      {
        OFFSET -2.54234 -6.98562 -0.000396375
        CHANNELS 6 Xposition Yposition Zposition Zrotation Xrotation Yrotation
        JOINT RightFoot
        {
          OFFSET -2.56826 -7.05623 -4.47982e-05
          CHANNELS 6 Xposition Yposition Zposition Zrotation Xrotation Yrotation
          JOINT RightToeBase
          {
            OFFSET -0.16473 -0.45259 2.36315
            CHANNELS 6 Xposition Yposition Zposition Zrotation Xrotation Yrotation
            End Site
            {
              OFFSET 0 0 0
            }
          }
        }
      }
    }
  }
  JOINT LowerBack
  {
    OFFSET 0 0 0
    CHANNELS 6 Xposition Yposition Zposition Zrotation Xrotation Yrotation
    JOINT Spine
    {
      OFFSET 0.0282699 2.03559 0
      CHANNELS 6 Xposition Yposition Zposition Zrotation Xrotation Yrotation
      JOINT Spine1
      {
        OFFSET 0.05672 2.04885 -0.04275
        CHANNELS 6 Xposition Yposition Zposition Zrotation Xrotation Yrotation
        JOINT Neck
        {
          OFFSET 0 0 0
          CHANNELS 6 Xposition Yposition Zposition Zrotation Xrotation Yrotation
          JOINT Neck1
          {
            OFFSET -0.05417 1.74624 0.17202
            CHANNELS 6 Xposition Yposition Zposition Zrotation Xrotation Yrotation
            JOINT Head
            {
              OFFSET 0.10407 1.76136 -0.12397
              CHANNELS 6 Xposition Yposition Zposition Zrotation Xrotation Yrotation
              End Site
              {
                OFFSET 0 0 0
              }
            }
          }
        }
        JOINT LeftShoulder
        {
          OFFSET 0 0 0
          CHANNELS 6 Xposition Yposition Zposition Zrotation Xrotation Yrotation
          JOINT LeftArm
          {
            OFFSET 3.36241 1.20089 -0.311211
            CHANNELS 6 Xposition Yposition Zposition Zrotation Xrotation Yrotation
            JOINT LeftForeArm
            {
              OFFSET 4.983 0.000197398 0.000166057
              CHANNELS 6 Xposition Yposition Zposition Zrotation Xrotation Yrotation
              JOINT LeftHand
              {
                OFFSET 3.48356 0 1.87849e-05
                CHANNELS 6 Xposition Yposition Zposition Zrotation Xrotation Yrotation
                JOINT LeftFingerBase
                {
                  OFFSET 0 0 0
                  CHANNELS 6 Xposition Yposition Zposition Zrotation Xrotation Yrotation
                  JOINT LeftHandIndex1
                  {
                    OFFSET 0.71526 0 0
                    CHANNELS 6 Xposition Yposition Zposition Zrotation Xrotation Yrotation
                    End Site
                    {
                      OFFSET 0 0 0
                    }
                  }
                }
                JOINT LThumb
                {
                  OFFSET 0 0 0
                  CHANNELS 6 Xposition Yposition Zposition Zrotation Xrotation Yrotation
                  End Site
                  {
                    OFFSET 0 0 0
                  }
                }
              }
            }
          }
        }
        JOINT RightShoulder
        {
          OFFSET 0 0 0
          CHANNELS 6 Xposition Yposition Zposition Zrotation Xrotation Yrotation
          JOINT RightArm
          {
            OFFSET -3.1366 1.37405 -0.404651
            CHANNELS 6 Xposition Yposition Zposition Zrotation Xrotation Yrotation
            JOINT RightForeArm
            {
              OFFSET -5.2419 -5.8808e-05 -0.000165864
              CHANNELS 6 Xposition Yposition Zposition Zrotation Xrotation Yrotation
              JOINT RightHand
              {
                OFFSET -3.44417 0 -2.00002e-05
                CHANNELS 6 Xposition Yposition Zposition Zrotation Xrotation Yrotation
                JOINT RightFingerBase
                {
                  OFFSET 0 0 0
                  CHANNELS 6 Xposition Yposition Zposition Zrotation Xrotation Yrotation
                  JOINT RightHandIndex1
                  {
                    OFFSET -0.62253 0 0
                    CHANNELS 6 Xposition Yposition Zposition Zrotation Xrotation Yrotation
                    End Site
                    {
                      OFFSET 0 0 0
                    }
                  }
                }
                JOINT RThumb
                {
                  OFFSET 0 0 0
                  CHANNELS 6 Xposition Yposition Zposition Zrotation Xrotation Yrotation
                  End Site
                  {
                    OFFSET 0 0 0
                  }
                }
              }
            }
          }
        }
      }
    }
  }
}
MOTION
Frames:	4
Frame Time:	0.00833333
0.0273292 -0.436096 0.279869 -3.08046 3.90791 11.9935 0 0 0 9.93923e-17 -1.59028e-15 6.36111e-15 1.36306 -1.79463 2.72696e-07 -8.95535 -15.4495 -12.1779 2.44807 -6.72613 0.000295034 -117.628 59.5224 139.815 2.5622 -7.03959 3.59965e-05 -0.559901 -14.4499 -6.1362 0.15764 -0.43311 2.32255 -6.36111e-15 -7.95139e-16 7.95139e-16 0 0 0 9.93923e-17 -1.59028e-15 6.36111e-15 -1.30552 -1.79463 9.47086e-09 -153.789 -83.1972 -161.697 -2.54234 -6.98562 -0.000396375 110.695 63.1907 -132.9 -2.56826 -7.05623 -4.47982e-05 7.69795 -40.3296 18.2691 -0.16473 -0.45259 2.36315 -4.42296e-15 3.18055e-15 -2.88238e-15 0 0 0 9.93923e-17 -1.59028e-15 6.36111e-15 0.0282699 2.03559 2.04641e-09 2.75526 -7.91837 -8.96293 0.05672 2.04885 -0.04275 -1.2424e-16 7.95139e-16 -0 0 0 0 -9.93923e-17 7.95139e-16 -0 -0.05417 1.74624 0.17202 1.7177 -2.1866 1.19589 0.10407 1.76136 -0.12397 -8.94531e-16 0 -7.95139e-16 0 0 0 -9.93923e-17 7.95139e-16 -0 3.36241 1.20089 -0.311211 -74.251 -5.35287 -18.6222 4.983 0.000197398 0.000166057 -1.31107 -3.37879 -42.5318 3.48356 3.24813e-06 1.87849e-05 7.45885e-05 1.59028e-15 -0.000316707 0 0 0 -8.82781e-32 1.59028e-15 3.18055e-15 0.71526 0 0 -4.77083e-15 -3.18055e-15 -3.18055e-15 0 0 0 -8.82781e-32 1.59028e-15 3.18055e-15 0 0 0 -9.93923e-17 7.95139e-16 -0 -3.1366 1.37405 -0.404651 65.9424 -3.40511 -45.3404 -5.2419 -5.8808e-05 -0.000165864 -0.441222 -0.968829 23.8519 -3.44417 5.22754e-06 -2.00002e-05 -7.52769e-05 -1.59028e-15 -0.000314099 0 0 0 -3.18055e-15 -3.18055e-15 3.18055e-15 -0.62253 0 -4.44089e-16 2.98177e-16 3.97569e-16 -3.18055e-15 0 0 0 -3.18055e-15 -3.18055e-15 3.18055e-15 
0.0341439 -0.426422 0.318173 -3.0202 3.9076 11.7627 0 0 0 4.96962e-16 0 -3.18055e-15 1.36306 -1.79463 2.72696e-07 -7.80372 -17.2395 -12.0277 2.44807 -6.72613 0.000295034 -119.652 57.7323 142.36 2.5622 -7.03959 3.59965e-05 1.36496 -14.3356 -5.67691 0.15764 -0.43311 2.32255 5.51738e-33 7.95139e-16 -3.97569e-16 0 0 0 4.96962e-16 0 -3.18055e-15 -1.30552 -1.79463 9.47086e-09 -152.567 -84.6415 -160.627 -2.54234 -6.98562 -0.000396375 113.234 61.7626 -135.863 -2.56826 -7.05623 -4.47982e-05 6.75993 -40.1302 17.6385 -0.16473 -0.45259 2.36315 3.77691e-15 3.18055e-15 1.59028e-15 0 0 0 4.96962e-16 0 -3.18055e-15 0.0282699 2.03559 2.04641e-09 2.69618 -7.92222 -8.78186 0.05672 2.04885 -0.04275 -1.98785e-16 0 3.97569e-16 0 0 0 -1.98785e-16 0 -3.97569e-16 -0.05417 1.74624 0.17202 1.89547 -2.19951 0.94549 0.10407 1.76136 -0.12397 1.98785e-16 -1.59028e-15 7.95139e-16 0 0 0 -1.98785e-16 0 -3.97569e-16 3.36241 1.20089 -0.311211 -74.1244 -5.27332 -18.1338 4.983 0.000197398 0.000166057 -1.29787 -3.36394 -42.4142 3.48356 3.24813e-06 1.87849e-05 7.55714e-05 -1.59028e-15 -0.000311868 0 0 0 1.59028e-15 -7.95139e-16 -0 0.71526 8.88178e-16 -2.22045e-16 4.77083e-15 1.59028e-15 -0 0 0 0 1.59028e-15 -7.95139e-16 -0 0 0 0 -1.98785e-16 0 -3.97569e-16 -3.1366 1.37405 -0.404651 66.0261 -3.38072 -44.9912 -5.2419 -5.8808e-05 -0.000165864 -0.541373 -0.698032 19.9696 -3.44417 5.22754e-06 -2.00002e-05 -6.82046e-05 -3.97569e-16 -0.00027248 0 0 0 6.85807e-15 1.19271e-15 -0 -0.62253 0 -4.44089e-16 -3.27995e-15 -1.98785e-15 -0 0 0 0 6.85807e-15 1.19271e-15 -0 
0.0370325 -0.403196 0.333476 -2.87173 3.90476 11.195 0 0 0 -5.96354e-16 1.59028e-15 -1.59028e-15 1.36306 -1.79463 2.72696e-07 -7.1793 -18.0523 -11.4408 2.44807 -6.72613 0.000295034 -120.586 57.0509 143.56 2.5622 -7.03959 3.59965e-05 2.79984 -14.043 -4.5507 0.15764 -0.43311 2.32255 -6.36111e-15 7.95139e-16 -1.78906e-15 0 0 0 -5.96354e-16 1.59028e-15 -1.59028e-15 -1.30552 -1.79463 9.47086e-09 -123.841 -87.7099 -132.232 -2.54234 -6.98562 -0.000396375 114.389 61.183 -137.231 -2.56826 -7.05623 -4.47982e-05 5.57698 -39.6756 16.2651 -0.16473 -0.45259 2.36315 3.97569e-16 6.36111e-15 -7.95139e-16 0 0 0 -5.96354e-16 1.59028e-15 -1.59028e-15 0.0282699 2.03559 2.04641e-09 2.5527 -7.93125 -8.34211 0.05672 2.04885 -0.04275 3.47873e-16 -7.95139e-16 3.97569e-16 0 0 0 -7.45443e-17 -7.95139e-16 3.97569e-16 -0.05417 1.74624 0.17202 1.97946 -2.20526 0.842407 0.10407 1.76136 -0.12397 1.98785e-16 0 -1.59028e-15 0 0 0 -7.45443e-17 -7.95139e-16 3.97569e-16 3.36241 1.20089 -0.311211 -73.9278 -5.07732 -16.9484 4.983 0.000197398 0.000166057 -1.26605 -3.32761 -42.1284 3.48356 3.24813e-06 1.87849e-05 7.57118e-05 2.38542e-15 -0.000299516 0 0 0 -1.32417e-31 -2.38542e-15 -3.18055e-15 0.71526 0 0 3.18055e-15 0 -3.18055e-15 0 0 0 -1.32417e-31 -2.38542e-15 -3.18055e-15 0 0 0 -7.45443e-17 -7.95139e-16 3.97569e-16 -3.1366 1.37405 -0.404651 66.2285 -3.31974 -44.143 -5.2419 -5.8808e-05 -0.000165864 -0.629259 -0.394592 15.9881 -3.44417 5.22754e-06 -2.00002e-05 -6.26202e-05 3.97569e-16 -0.000239082 0 0 0 6.06293e-15 1.98785e-15 3.18055e-15 -0.62253 0 0 8.24956e-15 1.59028e-15 -6.36111e-15 0 0 0 6.06293e-15 1.98785e-15 3.18055e-15 
0.0382454 -0.375112 0.340176 -2.6836 3.89651 10.4777 0 0 0 1.98785e-16 -7.95139e-16 -1.59028e-15 1.36306 -1.79463 2.72696e-07 -6.7396 -18.4177 -10.6746 2.44807 -6.72613 0.000295034 -121.156 56.8278 144.277 2.5622 -7.03959 3.59965e-05 3.93931 -13.6491 -3.13482 0.15764 -0.43311 2.32255 6.36111e-15 7.95139e-16 1.98785e-15 0 0 0 1.98785e-16 -7.95139e-16 -1.59028e-15 -1.30552 -1.79463 9.47086e-09 -19.5342 -86.5431 -28.3514 -2.54234 -6.98562 -0.000396375 114.987 60.9999 -137.936 -2.56826 -7.05623 -4.47982e-05 4.50055 -39.2002 14.911 -0.16473 -0.45259 2.36315 1.98785e-15 -1.59028e-15 -4.77083e-15 0 0 0 1.98785e-16 -7.95139e-16 -1.59028e-15 0.0282699 2.03559 2.04641e-09 2.3755 -7.94178 -7.79885 0.05672 2.04885 -0.04275 9.93923e-17 0 7.95139e-16 0 0 0 -2.48481e-17 -3.97569e-16 1.19271e-15 -0.05417 1.74624 0.17202 2.02598 -2.20759 0.798221 0.10407 1.76136 -0.12397 4.96962e-17 7.95139e-16 -0 0 0 0 -2.48481e-17 -3.97569e-16 1.19271e-15 3.36241 1.20089 -0.311211 -73.7108 -4.83044 -15.485 4.983 0.000197398 0.000166057 -1.22715 -3.28224 -41.7754 3.48356 3.24813e-06 1.87849e-05 7.58522e-05 -3.97569e-15 -0.000282903 0 0 0 -0 -3.18055e-15 -0 0.71526 0 0 -1.59028e-15 0 -0 0 0 0 -0 -3.18055e-15 -0 0 0 0 -2.48481e-17 -3.97569e-16 1.19271e-15 -3.1366 1.37405 -0.404651 66.4768 -3.24143 -43.0952 -5.2419 -5.8808e-05 -0.000165864 -0.69191 -0.088445 12.1956 -3.44417 5.22754e-06 -2.00002e-05 -5.8954e-05 9.93923e-16 -0.000211233 0 0 0 6.26172e-15 -1.39149e-15 -3.18055e-15 -0.62253 0 4.44089e-16 -1.09332e-15 1.98785e-15 -3.18055e-15 0 0 0 6.26172e-15 -1.39149e-15 -3.18055e-15 
